<?xml version="1.0" encoding="UTF-8" standalone="no"?>
<svg
   xmlns:dc="http://purl.org/dc/elements/1.1/"
   xmlns:cc="http://creativecommons.org/ns#"
   xmlns:rdf="http://www.w3.org/1999/02/22-rdf-syntax-ns#"
   xmlns:svg="http://www.w3.org/2000/svg"
   xmlns="http://www.w3.org/2000/svg"
   xmlns:sodipodi="http://sodipodi.sourceforge.net/DTD/sodipodi-0.dtd"
   xmlns:inkscape="http://www.inkscape.org/namespaces/inkscape"
   inkscape:version="1.0 (4035a4fb49, 2020-05-01)"
   sodipodi:docname="coding.svg"
   xml:space="preserve"
   style="enable-background:new 0 0 493.101 493.101;"
   viewBox="0 0 493.101 493.101"
   y="0px"
   x="0px"
   id="Capa_1"
   version="1.1"><metadata
   id="metadata49"><rdf:RDF><cc:Work
       rdf:about=""><dc:format>image/svg+xml</dc:format><dc:type
         rdf:resource="http://purl.org/dc/dcmitype/StillImage" /></cc:Work></rdf:RDF></metadata><defs
   id="defs47" /><sodipodi:namedview
   inkscape:current-layer="Capa_1"
   inkscape:window-maximized="1"
   inkscape:window-y="-8"
   inkscape:window-x="-8"
   inkscape:cy="246.55051"
   inkscape:cx="246.55051"
   inkscape:zoom="1.7237847"
   showgrid="false"
   id="namedview45"
   inkscape:window-height="1017"
   inkscape:window-width="1920"
   inkscape:pageshadow="2"
   inkscape:pageopacity="0"
   guidetolerance="10"
   gridtolerance="10"
   objecttolerance="10"
   borderopacity="1"
   bordercolor="#666666"
   pagecolor="#ffffff" />
<g
   style="stroke:none;stroke-opacity:1;fill:#ff6666;fill-opacity:1"
   id="g12">
	<g
   style="stroke:none;stroke-opacity:1;fill:#ff6666;fill-opacity:1"
   id="g10">
		<path
   style="stroke:none;stroke-opacity:1;fill:#ff6666;fill-opacity:1"
   id="path2"
   d="M20.9,153.7c11.5,0,20.9-9.4,20.9-20.9V42.2h407.6v90.7c0,11.5,9.4,20.9,20.9,20.9s20.9-9.4,20.9-20.9V22.4    c0-11.5-9.4-20.9-20.9-20.9H20.9C9.4,1.5,0,10.9,0,22.4v110.5C0,144.3,9.4,153.7,20.9,153.7z" />
		<path
   style="stroke:none;stroke-opacity:1;fill:#ff6666;fill-opacity:1"
   id="path4"
   d="M472.3,339.3c-11.5,0-20.9,9.4-20.9,20.9v90.7H42.8v-90.7c0-11.5-9.4-20.9-20.9-20.9S1,348.7,1,360.2v110.5    c0,11.5,9.4,20.9,20.9,20.9h448.3c11.5,0,20.9-9.4,22.9-20.9V360.1C493.2,348.7,483.8,339.3,472.3,339.3z" />
		<path
   style="stroke:none;stroke-opacity:1;fill:#ff6666;fill-opacity:1"
   id="path6"
   d="M326.4,343.5c13.5,11.9,25,4.2,29.2,0l83.4-83.4c8.3-8.3,8.3-20.9,0-29.2l-83.5-83.4c-8.3-8.3-20.9-8.3-29.2,0    s-8.3,20.9,0,29.2l68.8,68.8l-68.8,68.8C318,322.6,317.5,335.6,326.4,343.5z" />
		<path
   style="stroke:none;stroke-opacity:1;fill:#ff6666;fill-opacity:1"
   id="path8"
   d="M165.8,147.5c-8.3-8.3-20.9-8.3-29.2,0l-83.4,83.4c-8.3,8.3-8.3,20.9,0,29.2l83.4,83.4c4.2,4.2,16,11.6,29.2,1    c8.3-8.3,8.3-20.9,0-29.2L97,246.5l68.8-69.9C174.1,168.3,174.1,155.8,165.8,147.5z" />
	</g>
</g>
<g
   id="g14">
</g>
<g
   id="g16">
</g>
<g
   id="g18">
</g>
<g
   id="g20">
</g>
<g
   id="g22">
</g>
<g
   id="g24">
</g>
<g
   id="g26">
</g>
<g
   id="g28">
</g>
<g
   id="g30">
</g>
<g
   id="g32">
</g>
<g
   id="g34">
</g>
<g
   id="g36">
</g>
<g
   id="g38">
</g>
<g
   id="g40">
</g>
<g
   id="g42">
</g>
</svg>
