<?xml version="1.0" encoding="UTF-8" standalone="no"?>
<svg
   xmlns:dc="http://purl.org/dc/elements/1.1/"
   xmlns:cc="http://creativecommons.org/ns#"
   xmlns:rdf="http://www.w3.org/1999/02/22-rdf-syntax-ns#"
   xmlns:svg="http://www.w3.org/2000/svg"
   xmlns="http://www.w3.org/2000/svg"
   xmlns:sodipodi="http://sodipodi.sourceforge.net/DTD/sodipodi-0.dtd"
   xmlns:inkscape="http://www.inkscape.org/namespaces/inkscape"
   inkscape:version="1.0 (4035a4fb49, 2020-05-01)"
   sodipodi:docname="database-svgrepo-com.svg"
   xml:space="preserve"
   style="enable-background:new 0 0 95.103 95.103;"
   viewBox="0 0 95.103 95.103"
   height="95.103px"
   width="95.103px"
   y="0px"
   x="0px"
   id="Capa_1"
   version="1.1"><metadata
   id="metadata56"><rdf:RDF><cc:Work
       rdf:about=""><dc:format>image/svg+xml</dc:format><dc:type
         rdf:resource="http://purl.org/dc/dcmitype/StillImage" /></cc:Work></rdf:RDF></metadata><defs
   id="defs54" /><sodipodi:namedview
   inkscape:current-layer="Capa_1"
   inkscape:window-maximized="1"
   inkscape:window-y="-8"
   inkscape:window-x="-8"
   inkscape:cy="2.7336119"
   inkscape:cx="47.265403"
   inkscape:zoom="8.9376784"
   showgrid="false"
   id="namedview52"
   inkscape:window-height="1017"
   inkscape:window-width="1920"
   inkscape:pageshadow="2"
   inkscape:pageopacity="0"
   guidetolerance="10"
   gridtolerance="10"
   objecttolerance="10"
   borderopacity="1"
   bordercolor="#666666"
   pagecolor="#ffffff" />
<g
   style="fill:#ff6666;fill-opacity:1"
   id="g19">
	<g
   style="fill:#ff6666;fill-opacity:1"
   id="Layer_1_14_">
		<g
   style="fill:#ff6666;fill-opacity:1"
   id="g16">
			<g
   style="fill:#ff6666;fill-opacity:1"
   id="g6">
				<g
   style="fill:#ff6666;fill-opacity:1"
   id="g4">
					<path
   style="fill:#ff6666;fill-opacity:1"
   id="path2"
   d="M47.561,0C25.928,0,8.39,6.393,8.39,14.283v11.72c0,7.891,17.538,14.282,39.171,14.282       c21.632,0,39.17-6.392,39.17-14.282v-11.72C86.731,6.393,69.193,0,47.561,0z" />
				</g>
			</g>
			<g
   style="fill:#ff6666;fill-opacity:1"
   id="g12">
				<g
   style="fill:#ff6666;fill-opacity:1"
   id="g10">
					<path
   style="fill:#ff6666;fill-opacity:1"
   id="path8"
   d="M47.561,47.115c-20.654,0-37.682-5.832-39.171-13.227c-0.071,0.353,0,19.355,0,19.355       c0,7.892,17.538,14.283,39.171,14.283c21.632,0,39.17-6.393,39.17-14.283c0,0,0.044-19.003-0.026-19.355       C85.214,41.284,68.214,47.115,47.561,47.115z" />
				</g>
			</g>
			<path
   style="fill:#ff6666;fill-opacity:1"
   id="path14"
   d="M86.694,61.464c-1.488,7.391-18.479,13.226-39.133,13.226S9.875,68.854,8.386,61.464L8.39,80.82     c0,7.891,17.538,14.282,39.171,14.282c21.632,0,39.17-6.393,39.17-14.282L86.694,61.464z" />
		</g>
	</g>
</g>
<g
   id="g21">
</g>
<g
   id="g23">
</g>
<g
   id="g25">
</g>
<g
   id="g27">
</g>
<g
   id="g29">
</g>
<g
   id="g31">
</g>
<g
   id="g33">
</g>
<g
   id="g35">
</g>
<g
   id="g37">
</g>
<g
   id="g39">
</g>
<g
   id="g41">
</g>
<g
   id="g43">
</g>
<g
   id="g45">
</g>
<g
   id="g47">
</g>
<g
   id="g49">
</g>
</svg>
