<?xml version="1.0" encoding="UTF-8" standalone="no"?>
<svg
   xmlns:dc="http://purl.org/dc/elements/1.1/"
   xmlns:cc="http://creativecommons.org/ns#"
   xmlns:rdf="http://www.w3.org/1999/02/22-rdf-syntax-ns#"
   xmlns:svg="http://www.w3.org/2000/svg"
   xmlns="http://www.w3.org/2000/svg"
   xmlns:sodipodi="http://sodipodi.sourceforge.net/DTD/sodipodi-0.dtd"
   xmlns:inkscape="http://www.inkscape.org/namespaces/inkscape"
   inkscape:version="1.0 (4035a4fb49, 2020-05-01)"
   sodipodi:docname="emergency-room.svg"
   id="svg22"
   version="1.1"
   preserveAspectRatio="xMidYMid meet"
   class="iconify iconify--medical-icon"
   role="img"
   aria-hidden="true"
   viewBox="0 0 64 64"
   height="64px"
   width="64px">
  <metadata
     id="metadata28">
    <rdf:RDF>
      <cc:Work
         rdf:about="">
        <dc:format>image/svg+xml</dc:format>
        <dc:type
           rdf:resource="http://purl.org/dc/dcmitype/StillImage" />
      </cc:Work>
    </rdf:RDF>
  </metadata>
  <defs
     id="defs26" />
  <sodipodi:namedview
     inkscape:current-layer="svg22"
     inkscape:window-maximized="1"
     inkscape:window-y="-8"
     inkscape:window-x="-8"
     inkscape:cy="32"
     inkscape:cx="32"
     inkscape:zoom="13.28125"
     showgrid="false"
     id="namedview24"
     inkscape:window-height="1017"
     inkscape:window-width="1920"
     inkscape:pageshadow="2"
     inkscape:pageopacity="0"
     guidetolerance="10"
     gridtolerance="10"
     objecttolerance="10"
     borderopacity="1"
     bordercolor="#666666"
     pagecolor="#ffffff" />
  <path
     style="fill:#ff432e;fill-opacity:1"
     id="path2"
     fill="currentColor"
     d="M27.83 32.711v-.01c.605-.236 1.004-.757 1.004-1.741c0-1.401-.911-2.036-2.304-2.036c-.666 0-1.269.02-1.916.092v6.786h1.322V33.12h.686c.174 0 .215.092.266.286l.627 2.395h1.381l-.83-2.774c-.041-.172-.092-.275-.236-.316zm-1.157-.646h-.737v-2.067c.216-.02.43-.031.644-.031c.79 0 .953.471.953 1.074c0 .717-.255 1.024-.86 1.024z" />
  <path
     style="fill:#ff432e;fill-opacity:1"
     id="path4"
     fill="currentColor"
     d="M36.926 32.814h1.795v-1.096h-1.795v-1.637h1.99v-1.106h-3.309v6.827h3.39v-1.076h-2.071z" />
  <path
     style="fill:#ff432e;fill-opacity:1"
     id="path6"
     fill="currentColor"
     d="M10.486 32.814h1.793v-1.096h-1.793v-1.637h1.987v-1.106H9.165v6.827h3.391v-1.076h-2.069z" />
  <path
     style="fill:#ff432e;fill-opacity:1"
     id="path8"
     fill="currentColor"
     d="M21.458 32.814h1.795v-1.096h-1.795v-1.637h1.989v-1.106h-3.309v6.827h3.39v-1.076h-2.07z" />
  <path
     style="fill:#ff432e;fill-opacity:1"
     id="path10"
     fill="currentColor"
     d="M16.223 31.564l-1.342-2.589h-1.239v6.827h1.291v-4.411l1.291 2.589l1.28-2.599h.041v4.421h1.239v-6.827h-1.239z" />
  <path
     style="fill:#ff432e;fill-opacity:1"
     id="path12"
     fill="currentColor"
     d="M32.339 33.109h.93v.245c0 .708-.102 1.506-.982 1.506c-1.147 0-1.177-1.627-1.177-2.466c0-.831.083-2.406 1.219-2.406c.532 0 .788.296 1.084.664l.728-.973c-.524-.52-1.066-.819-1.793-.819c-1.935 0-2.623 1.843-2.623 3.541c0 1.68.626 3.512 2.521 3.512c1.852 0 2.222-1.608 2.222-3.092v-.797h-2.13v1.084z" />
  <path
     style="fill:#ff432e;fill-opacity:1"
     id="path14"
     fill="currentColor"
     d="M52.439 35.802h1.312v-2.61l1.731-4.218h-1.343l-1.034 3.111l-1.035-3.111h-1.414l1.784 4.289z" />
  <path
     style="fill:#ff432e;fill-opacity:1"
     id="path16"
     fill="currentColor"
     d="M40.084 35.802h1.291v-4.216h.031l2.192 4.216h1.157v-6.827h-1.28v4.042h-.019l-2.091-4.043h-1.28z" />
  <path
     style="fill:#ff432e;fill-opacity:1"
     id="path18"
     fill="currentColor"
     d="M55.653.826H8.298C4.232.826.425 4.641.425 8.706v47.342c0 4.067 3.822 7.901 7.89 7.901h47.34c4.066 0 7.895-3.814 7.895-7.88V8.712c0-4.065-3.829-7.885-7.897-7.885zm1.611 39.984h-16.85v16.833H23.565V40.81H6.71V23.965h16.855V7.132h16.849v16.833h16.85V40.81z" />
  <path
     style="fill:#ff432e;fill-opacity:1"
     id="path20"
     fill="currentColor"
     d="M48.464 35.914c.839.001 1.495-.389 1.947-.942l-.676-.963c-.338.45-.643.788-1.199.788c-1.065 0-1.251-1.483-1.251-2.404c0-1.229.287-2.406 1.221-2.406c.503 0 .78.337 1.075.789l.79-.933c-.525-.623-1.047-.983-1.845-.983c-1.895 0-2.623 1.781-2.623 3.533c0 1.853.676 3.521 2.561 3.521z" />
</svg>
