<?xml version="1.0" encoding="UTF-8" standalone="no"?>
<svg
   xmlns:dc="http://purl.org/dc/elements/1.1/"
   xmlns:cc="http://creativecommons.org/ns#"
   xmlns:rdf="http://www.w3.org/1999/02/22-rdf-syntax-ns#"
   xmlns:svg="http://www.w3.org/2000/svg"
   xmlns="http://www.w3.org/2000/svg"
   xmlns:sodipodi="http://sodipodi.sourceforge.net/DTD/sodipodi-0.dtd"
   xmlns:inkscape="http://www.inkscape.org/namespaces/inkscape"
   inkscape:version="1.0 (4035a4fb49, 2020-05-01)"
   sodipodi:docname="foreign-language.svg"
   id="svg6"
   version="1.1"
   viewBox="0 0 512 512"
   height="512px"
   width="512px">
  <metadata
     id="metadata12">
    <rdf:RDF>
      <cc:Work
         rdf:about="">
        <dc:format>image/svg+xml</dc:format>
        <dc:type
           rdf:resource="http://purl.org/dc/dcmitype/StillImage" />
      </cc:Work>
    </rdf:RDF>
  </metadata>
  <defs
     id="defs10" />
  <sodipodi:namedview
     inkscape:current-layer="svg6"
     inkscape:window-maximized="1"
     inkscape:window-y="-8"
     inkscape:window-x="-8"
     inkscape:cy="256"
     inkscape:cx="256"
     inkscape:zoom="1.6601562"
     showgrid="false"
     id="namedview8"
     inkscape:window-height="1017"
     inkscape:window-width="1920"
     inkscape:pageshadow="2"
     inkscape:pageopacity="0"
     guidetolerance="10"
     gridtolerance="10"
     objecttolerance="10"
     borderopacity="1"
     bordercolor="#666666"
     pagecolor="#ffffff" />
  <path
     style="fill:#ff432e;fill-opacity:1"
     id="path2"
     class="ci-primary"
     d="M320,24H16V328H192V496H496V192H320ZM148.305,96,98.093,239.3H132l8.166-23.3H192v80H48V56H288V192H221.332L187.7,96Zm36.317,88H151.378L168,136.562ZM464,224V464H224V224Z"
     fill="var(--ci-primary-color, currentColor)" />
  <path
     style="fill:#ff432e;fill-opacity:1"
     id="path4"
     class="ci-primary"
     d="M317.432,368.48A136.761,136.761,0,0,0,327.521,382.6q-17.4,9.384-39.521,9.4v32c24.141,0,45.71-6.408,64-18.824C370.29,417.592,391.859,424,416,424V392q-22.075,0-39.52-9.407a136.574,136.574,0,0,0,10.088-14.113A166.212,166.212,0,0,0,406.662,320H424V288H368V264H336v24H280v32h17.338A166.212,166.212,0,0,0,317.432,368.48ZM373.53,320a133.013,133.013,0,0,1-14.1,31.52A104.39,104.39,0,0,1,352,361.968a103.546,103.546,0,0,1-6.93-9.651A132.384,132.384,0,0,1,330.466,320Z"
     fill="var(--ci-primary-color, currentColor)" />
</svg>
