<!DOCTYPE svg PUBLIC "-//W3C//DTD SVG 1.1//EN" "http://www.w3.org/Graphics/SVG/1.1/DTD/svg11.dtd">

<!-- Uploaded to: SVG Repo, www.svgrepo.com, Transformed by: SVG Repo Mixer Tools -->
<svg fill="#ff432e" height="800px" width="800px" version="1.1" id="Layer_1" xmlns="http://www.w3.org/2000/svg" xmlns:xlink="http://www.w3.org/1999/xlink" viewBox="0 0 512 512" xml:space="preserve" stroke="#ff432e">

<g id="SVGRepo_bgCarrier" stroke-width="0"/>

<g id="SVGRepo_tracerCarrier" stroke-linecap="round" stroke-linejoin="round"/>

<g id="SVGRepo_iconCarrier"> <g> <g> <path d="M334.306,64.29c-2.541-3.554-7.285-4.736-11.204-2.79c-42.016,21.012-92.197,21.012-134.204,0 c-3.918-1.964-8.663-0.773-11.204,2.781L0,313.053l14.455,10.324L187.841,80.647c43.189,19.173,93.112,19.173,136.31,0 l173.394,242.74L512,313.062L334.306,64.29z"/> </g> </g> <g> <g> <path d="M494.675,333.586c-4.096,4.114-8.272,8.112-12.519,11.977l11.959,13.141c4.469-4.06,8.858-8.263,13.158-12.572 L494.675,333.586z"/> </g> </g> <g> <g> <path d="M469.051,356.9c-4.478,3.687-9.036,7.241-13.647,10.671l10.599,14.26c4.842-3.598,9.622-7.33,14.34-11.213L469.051,356.9z "/> </g> </g> <g> <g> <path d="M38.888,353.506l-11.497,13.558c4.656,3.945,9.382,7.756,14.189,11.426l10.786-14.109 C47.8,360.88,43.304,357.264,38.888,353.506z"/> </g> </g> <g> <g> <path d="M95.857,392.714l-8.538,15.593c5.357,2.932,10.75,5.713,16.206,8.334l7.721-16.001 C106.066,398.134,100.93,395.495,95.857,392.714z"/> </g> </g> <g> <g> <path d="M411.505,395.21c-5.126,2.692-10.306,5.26-15.531,7.676l7.481,16.117c5.482-2.541,10.919-5.233,16.312-8.058 L411.505,395.21z"/> </g> </g> <g> <g> <path d="M66.378,374.571l-10.084,14.624c5.029,3.465,10.12,6.788,15.264,9.951l9.32-15.131 C75.991,381.004,71.149,377.859,66.378,374.571z"/> </g> </g> <g> <g> <path d="M441.242,377.53c-4.816,3.207-9.702,6.29-14.633,9.222l9.071,15.273c5.198-3.092,10.342-6.326,15.415-9.711 L441.242,377.53z"/> </g> </g> <g> <g> <path d="M347.366,420.941c-5.562,1.581-11.15,3.021-16.766,4.309l3.998,17.325c5.908-1.359,11.79-2.87,17.627-4.54 L347.366,420.941z"/> </g> </g> <g> <g> <path d="M313.649,428.688c-5.686,0.995-11.39,1.857-17.121,2.559l2.177,17.636c6.024-0.737,12.03-1.635,18.018-2.683 L313.649,428.688z"/> </g> </g> <g> <g> <path d="M127.034,407.747l-6.895,16.383c5.624,2.363,11.284,4.567,16.97,6.619l6.042-16.712 C137.74,412.083,132.356,409.986,127.034,407.747z"/> </g> </g> <g> <g> <path d="M159.579,419.466l-5.144,17.005c5.828,1.759,11.683,3.376,17.583,4.824l4.256-17.245 C170.676,422.673,165.114,421.145,159.579,419.466z"/> </g> </g> <g> <g> <path d="M13.611,329.819L0.835,342.178c4.256,4.389,8.583,8.654,12.972,12.767l12.145-12.963 C21.776,338.046,17.654,333.995,13.611,329.819z"/> </g> </g> <g> <g> <path d="M380.089,409.737c-5.366,2.15-10.777,4.167-16.215,6.033l5.757,16.81c5.74-1.972,11.426-4.087,17.085-6.361 L380.089,409.737z"/> </g> </g> <g> <g> <path d="M279.3,432.917c-5.748,0.4-11.515,0.649-17.272,0.755l0.311,17.769c6.077-0.107,12.145-0.373,18.214-0.809L279.3,432.917z "/> </g> </g> <g> <g> <path d="M193.163,427.746l-3.341,17.45c5.971,1.146,11.968,2.132,17.974,2.967l2.443-17.592 C204.535,429.772,198.84,428.839,193.163,427.746z"/> </g> </g> <g> <g> <path d="M227.458,432.5l-1.546,17.698c6.059,0.533,12.128,0.897,18.196,1.093l0.604-17.752 C238.964,433.344,233.197,432.988,227.458,432.5z"/> </g> </g> <g> <g> <path d="M442.957,287.945c-4.736,3.332-9.542,6.513-14.393,9.551l9.427,15.06c5.126-3.207,10.191-6.566,15.193-10.075 L442.957,287.945z"/> </g> </g> <g> <g> <path d="M382.594,321.272c-5.34,2.212-10.706,4.282-16.108,6.184l5.899,16.766c5.722-2.026,11.399-4.202,17.032-6.548 L382.594,321.272z"/> </g> </g> <g> <g> <path d="M350.049,332.733c-5.535,1.608-11.106,3.056-16.703,4.345l3.989,17.316c5.926-1.368,11.826-2.896,17.672-4.611 L350.049,332.733z"/> </g> </g> <g> <g> <path d="M316.412,340.489c-5.677,0.977-11.364,1.786-17.076,2.434l2.017,17.645c6.042-0.684,12.074-1.546,18.08-2.577 L316.412,340.489z"/> </g> </g> <g> <g> <path d="M282.126,344.39c-5.748,0.329-11.497,0.489-17.245,0.489v17.769c6.086,0,12.172-0.178,18.258-0.524L282.126,344.39z"/> </g> </g> <g> <g> <path d="M413.664,306.257c-5.047,2.799-10.164,5.437-15.326,7.934l7.721,16.001c5.455-2.63,10.866-5.42,16.206-8.378 L413.664,306.257z"/> </g> </g> <g> <g> <path d="M122.911,317.149l-7.072,16.286c5.58,2.426,11.213,4.7,16.872,6.841l6.264-16.623 C133.591,321.618,128.233,319.45,122.911,317.149z"/> </g> </g> <g> <g> <path d="M62.708,283.156l-10.253,14.509c4.975,3.518,10.013,6.895,15.104,10.146l9.542-14.997 C72.251,289.722,67.453,286.506,62.708,283.156z"/> </g> </g> <g> <g> <path d="M91.957,301.699l-8.734,15.477c5.313,2.994,10.671,5.837,16.081,8.547l7.952-15.895 C102.112,307.261,97.012,304.551,91.957,301.699z"/> </g> </g> <g> <g> <path d="M104.902,219.799l-8.05,15.841c5.18,2.63,10.413,5.135,15.69,7.499l7.25-16.224 C114.799,224.677,109.824,222.305,104.902,219.799z"/> </g> </g> <g> <g> <path d="M345.616,243.744c-5.304,1.475-10.635,2.825-16.001,4.043l3.936,17.334c5.642-1.288,11.257-2.71,16.837-4.265 L345.616,243.744z"/> </g> </g> <g> <g> <path d="M407.018,219.835c-4.922,2.505-9.88,4.869-14.882,7.108l7.25,16.224c5.278-2.363,10.502-4.86,15.682-7.49L407.018,219.835 z"/> </g> </g> <g> <g> <path d="M313.435,251.038c-5.411,0.951-10.848,1.759-16.295,2.434l2.186,17.636c5.74-0.711,11.488-1.573,17.201-2.577 L313.435,251.038z"/> </g> </g> <g> <g> <path d="M280.722,255.116c-5.482,0.409-10.973,0.675-16.472,0.809l0.426,17.769c5.793-0.151,11.586-0.435,17.361-0.862 L280.722,255.116z"/> </g> </g> <g> <g> <path d="M231.243,255.116l-1.324,17.716c5.775,0.426,11.559,0.711,17.343,0.871l0.471-17.769 C242.224,255.791,236.725,255.525,231.243,255.116z"/> </g> </g> <g> <g> <path d="M135.021,233.295l-6.459,16.552c5.411,2.106,10.857,4.078,16.339,5.908l5.642-16.845 C145.336,237.169,140.157,235.303,135.021,233.295z"/> </g> </g> <g> <g> <path d="M166.322,243.735l-4.78,17.112c5.597,1.573,11.221,2.994,16.863,4.265l3.9-17.334 C176.948,246.569,171.626,245.219,166.322,243.735z"/> </g> </g> <g> <g> <path d="M376.908,233.313c-5.135,2.008-10.306,3.874-15.504,5.597l5.606,16.863c5.491-1.83,10.937-3.803,16.357-5.908 L376.908,233.313z"/> </g> </g> <g> <g> <path d="M198.503,251.038l-3.056,17.503c5.713,0.995,11.435,1.848,17.165,2.568l2.221-17.627 C209.386,252.797,203.931,251.98,198.503,251.038z"/> </g> </g> <g> <g> <path d="M297.043,164.643c-5.446,0.675-10.91,1.217-16.401,1.617l1.315,17.716c5.757-0.426,11.523-0.995,17.272-1.706 L297.043,164.643z"/> </g> </g> <g> <g> <path d="M264.169,167.068c-5.482,0.142-10.982,0.142-16.49,0l-0.435,17.769c2.905,0.071,5.828,0.107,8.743,0.107 c2.87,0,5.748-0.036,8.618-0.107L264.169,167.068z"/> </g> </g> <g> <g> <path d="M329.534,158.948c-5.375,1.226-10.768,2.301-16.179,3.243l3.074,17.512c5.695-0.995,11.372-2.141,17.023-3.421 L329.534,158.948z"/> </g> </g> <g> <g> <path d="M361.262,150.116c-5.215,1.724-10.466,3.332-15.753,4.807l4.771,17.112c5.562-1.546,11.106-3.234,16.606-5.073 L361.262,150.116z"/> </g> </g> <g> <g> <path d="M214.797,164.607l-2.177,17.636c5.74,0.711,11.506,1.288,17.263,1.715l1.333-17.716 C225.734,165.825,220.27,165.292,214.797,164.607z"/> </g> </g> <g> <g> <path d="M182.35,158.921l-3.927,17.334c5.651,1.279,11.328,2.417,17.014,3.421l3.074-17.512 C193.109,161.222,187.716,160.138,182.35,158.921z"/> </g> </g> <g> <g> <path d="M150.596,150.063l-5.624,16.854c5.5,1.839,11.026,3.518,16.579,5.091l4.824-17.112 C161.08,153.413,155.82,151.796,150.596,150.063z"/> </g> </g> <g> <g> <path d="M202.687,291.57c-29.4,0-53.308,23.909-53.308,53.308s23.909,53.308,53.308,53.308c29.4,0,53.308-23.909,53.308-53.308 S232.087,291.57,202.687,291.57z M202.687,380.417c-19.6,0-35.539-15.939-35.539-35.539s15.939-35.539,35.539-35.539 c19.6,0,35.539,15.939,35.539,35.539S222.287,380.417,202.687,380.417z"/> </g> </g> </g>

</svg>