<?xml version="1.0" encoding="UTF-8"?>
<svg xmlns="http://www.w3.org/2000/svg" xmlns:xlink="http://www.w3.org/1999/xlink" width="1500px" height="1000px" viewBox="0 0 1500 1000" version="1.1">
<defs>
<clipPath id="clip1">
  <path d="M 750 500 L 1500 500 L 1500 1000 Z M 750 500 L 750 1000 L 0 1000 Z M 750 500 L 0 500 L 0 0 Z M 750 500 L 750 0 L 1500 0 Z M 750 500 "/>
</clipPath>
</defs>
<g id="surface1">
<rect x="0" y="0" width="1500" height="1000" style="fill:rgb(0.392157%,12.941177%,41.176471%);fill-opacity:1;stroke:none;"/>
<path style="fill-rule:nonzero;fill:rgb(0%,0%,0%);fill-opacity:1;stroke-width:6;stroke-linecap:butt;stroke-linejoin:miter;stroke:rgb(100%,100%,100%);stroke-opacity:1;stroke-miterlimit:4;" d="M 0 0 L 50 30 M 50 0 L 0 30 " transform="matrix(30,0,0,33.333333,0,0)"/>
<g clip-path="url(#clip1)" clip-rule="nonzero">
<path style="fill-rule:nonzero;fill:rgb(0%,0%,0%);fill-opacity:1;stroke-width:4;stroke-linecap:butt;stroke-linejoin:miter;stroke:rgb(78.431374%,6.27451%,18.039216%);stroke-opacity:1;stroke-miterlimit:4;" d="M 0 0 L 50 30 M 50 0 L 0 30 " transform="matrix(30,0,0,33.333333,0,0)"/>
</g>
<path style="fill-rule:nonzero;fill:rgb(78.431374%,6.27451%,18.039216%);fill-opacity:1;stroke-width:2;stroke-linecap:butt;stroke-linejoin:miter;stroke:rgb(100%,100%,100%);stroke-opacity:1;stroke-miterlimit:4;" d="M -1 11.000039 L 21 11.000039 L 21 -0.999961 L 29 -0.999961 L 29 11.000039 L 51 11.000039 L 51 18.999961 L 29 18.999961 L 29 30.999961 L 21 30.999961 L 21 18.999961 L -1 18.999961 Z M -1 11.000039 " transform="matrix(30,0,0,33.333333,0,0)"/>
</g>
</svg>
