<?xml version="1.0" encoding="UTF-8" standalone="no"?>
<svg
   xmlns:dc="http://purl.org/dc/elements/1.1/"
   xmlns:cc="http://creativecommons.org/ns#"
   xmlns:rdf="http://www.w3.org/1999/02/22-rdf-syntax-ns#"
   xmlns:svg="http://www.w3.org/2000/svg"
   xmlns="http://www.w3.org/2000/svg"
   xmlns:sodipodi="http://sodipodi.sourceforge.net/DTD/sodipodi-0.dtd"
   xmlns:inkscape="http://www.inkscape.org/namespaces/inkscape"
   id="svg8"
   version="1.1"
   viewBox="0 0 216 216"
   height="216mm"
   width="216mm"
   sodipodi:docname="icon_webweightjournal.svg"
   inkscape:version="0.92.3 (2405546, 2018-03-11)"
   inkscape:export-filename="C:\Users\npari\Dropbox\Development\Journal in Cloud - ecosistema\wj_icon_web.png"
   inkscape:export-xdpi="30.103704"
   inkscape:export-ydpi="30.103704">
  <sodipodi:namedview
     pagecolor="#ffffff"
     bordercolor="#666666"
     borderopacity="1"
     objecttolerance="10"
     gridtolerance="10"
     guidetolerance="10"
     inkscape:pageopacity="0"
     inkscape:pageshadow="2"
     inkscape:window-width="1920"
     inkscape:window-height="1001"
     id="namedview3804"
     showgrid="false"
     inkscape:zoom="3.3638608"
     inkscape:cx="415.20934"
     inkscape:cy="461.17153"
     inkscape:window-x="-9"
     inkscape:window-y="-9"
     inkscape:window-maximized="1"
     inkscape:current-layer="svg8"
     fit-margin-top="0"
     fit-margin-left="0"
     fit-margin-right="0"
     fit-margin-bottom="0" />
  <defs
     id="defs2" />
  <metadata
     id="metadata5">
    <rdf:RDF>
      <cc:Work
         rdf:about="">
        <dc:format>image/svg+xml</dc:format>
        <dc:type
           rdf:resource="http://purl.org/dc/dcmitype/StillImage" />
        <dc:title></dc:title>
      </cc:Work>
    </rdf:RDF>
  </metadata>
  <path
     style="fill:#5b6abf;stroke-width:0.35277778"
     d="m 59.805855,163.20701 c -0.291042,-0.18809 -1.084792,-0.34946 -1.763889,-0.3586 -0.679097,-0.009 -1.542877,-0.2497 -1.91951,-0.53457 -0.376632,-0.28487 -1.121325,-0.51794 -1.654873,-0.51794 -0.533548,0 -1.068201,-0.15875 -1.188117,-0.35278 -0.119916,-0.19403 -0.565847,-0.35356 -0.990959,-0.3545 -1.13433,-0.003 -8.164266,-3.65682 -9.768763,-5.07799 -0.485069,-0.42964 -1.516944,-1.24615 -2.293055,-1.81445 -3.606348,-2.64073 -8.829388,-8.98133 -10.885126,-13.21417 -0.329812,-0.6791 -0.735622,-1.47285 -0.9018,-1.76389 -0.484044,-0.84775 -1.012345,-2.16495 -1.623684,-4.0483 -0.313365,-0.96538 -0.700379,-1.91788 -0.860032,-2.11666 -0.554539,-0.69047 -0.802488,-3.57853 -0.952098,-11.08984 -0.09863,-4.9517 -0.02423,-7.67963 0.216006,-7.91986 0.20155,-0.20155 0.366455,-0.64665 0.366455,-0.98912 0,-0.72344 0.923091,-3.71638 1.422229,-4.6113 0.187913,-0.33691 0.34166,-1.00223 0.34166,-1.47848 0,-0.47625 0.154502,-0.9614 0.343337,-1.07811 0.188836,-0.1167 0.599926,-0.80076 0.913535,-1.52012 0.893924,-2.05051 1.615933,-3.36462 2.269223,-4.13016 0.331156,-0.388049 0.688695,-0.953519 0.794532,-1.256579 0.379806,-1.08758 4.501172,-5.89091 6.68317,-7.78905 1.914066,-1.66506 5.011727,-3.93508 7.517037,-5.50862 1.200144,-0.75379 2.760412,-1.44638 8.042293,-3.56988 0.542706,-0.21818 1.515455,-0.3967 2.161667,-0.3967 0.646207,0 1.372552,-0.23812 1.614095,-0.52916 0.279372,-0.33662 1.058736,-0.52917 2.141908,-0.52917 h 1.70274 l 0.8999,-1.17983 c 0.49494,-0.6489 0.8999,-1.30487 0.8999,-1.45769 0,-0.62801 5.01473,-7.22592 7.11171,-9.35693 2.65862,-2.70174 6.12115,-5.70091 8.5869,-7.43778 1.55402,-1.09466 7.23892,-4.01344 9.70139,-4.98096 0.48507,-0.19058 1.33137,-0.56996 1.88067,-0.84305 0.5493,-0.2731 1.29399,-0.49654 1.65487,-0.49654 0.36088,0 0.75426,-0.15875 0.87418,-0.35278 0.11991,-0.19402 0.9036,-0.35277 1.74151,-0.35277 0.92384,0 1.696342,-0.20828 1.962662,-0.52917 0.27918,-0.3364 1.05841,-0.52917 2.13904,-0.52917 0.93493,0 1.797982,-0.15875 1.917902,-0.35277 0.13322,-0.21556 2.87775,-0.35278 7.05557,-0.35278 4.17781,0 6.92233,0.13722 7.05555,0.35278 0.11992,0.19402 0.98297,0.35277 1.9179,0.35277 1.08063,0 1.85986,0.19277 2.13904,0.52917 0.26632,0.32089 1.03882,0.52917 1.96266,0.52917 0.83791,0 1.6216,0.15875 1.74151,0.35277 0.11992,0.19403 0.49129,0.35278 0.82528,0.35278 1.35598,0 9.02476,3.62577 12.36847,5.84777 0.85364,0.56727 1.80614,1.19015 2.11666,1.38418 1.54063,0.96264 6.13195,5.14055 8.3257,7.57604 3.09446,3.43543 8.64306,11.66246 8.64306,12.81525 0,0.35192 1.06903,2.78903 2.15627,4.91572 0.17224,0.33692 0.31415,0.97192 0.31535,1.41112 0.001,0.43919 0.23932,1.25324 0.52916,1.809 0.28985,0.55575 0.527,1.4592 0.527,2.00765 0,0.54845 0.19843,1.12456 0.44097,1.28024 0.706,0.45317 3.51623,1.13718 4.74168,1.15413 0.61914,0.009 1.22382,0.17432 1.34373,0.36835 0.11992,0.19402 0.68707,0.35277 1.26033,0.35277 0.57327,0 1.31796,0.14462 1.65488,0.32138 0.33692,0.17676 1.56507,0.76542 2.72924,1.30815 1.16417,0.54273 2.59235,1.31092 3.17375,1.7071 0.5814,0.39617 1.6509,1.039079 2.37667,1.428679 1.97551,1.06048 5.7357,4.61775 7.82796,7.40552 1.60289,2.13573 3.89289,6.18117 4.79273,8.46667 0.15278,0.38806 0.53209,1.28517 0.84292,1.99359 0.31082,0.70842 0.56514,1.69124 0.56514,2.18404 0,0.49281 0.15875,0.99412 0.35277,1.11404 0.44893,0.27745 0.47842,13.81543 0.0307,14.09214 -0.17714,0.10948 -0.43464,0.87291 -0.57221,1.69651 -0.50086,2.99854 -3.60012,9.25787 -6.06904,12.25718 -2.67552,3.25031 -2.95715,3.55853 -4.51711,4.9437 -3.86458,3.43157 -10.27963,7.0003 -12.68483,7.05666 -0.38806,0.009 -1.01371,0.2496 -1.39034,0.53447 -0.37664,0.28487 -1.2007,0.51795 -1.83127,0.51795 -0.63056,0 -1.24459,0.15875 -1.3645,0.35278 -0.29518,0.47761 -101.742914,0.47761 -102.481958,0 z m 46.603105,-13.84653 c 0.22772,-0.43656 0.6451,-1.03187 0.92751,-1.32292 0.28242,-0.29104 0.93513,-1.17802 1.45047,-1.97107 0.51534,-0.79305 1.57198,-2.36019 2.3481,-3.48254 1.72743,-2.49807 3.51236,-5.15366 5.00941,-7.4529 1.9032,-2.92304 3.34378,-4.73264 3.76304,-4.72698 0.21987,0.003 0.63607,0.15481 0.92488,0.33741 l 0.52511,0.332 -1.02403,2.04385 c -0.56321,1.12411 -1.12862,2.28197 -1.25647,2.57301 -0.12784,0.29104 -0.59406,1.24354 -1.03604,2.11667 -0.44199,0.87312 -0.99437,1.98437 -1.22752,2.46944 -0.5997,1.24766 -1.66229,3.35925 -2.92915,5.82084 -0.59914,1.16416 -1.14532,2.51354 -1.21373,2.99861 l -0.12439,0.88194 22.53033,0.0908 22.53032,0.0908 1.45856,-0.40395 c 0.80221,-0.22217 1.90955,-0.44416 2.46076,-0.4933 0.55121,-0.0491 1.17828,-0.26542 1.39347,-0.48062 0.21521,-0.2152 0.7811,-0.39127 1.25756,-0.39127 0.47646,0 1.38662,-0.39687 2.02258,-0.88194 0.63596,-0.48507 1.25467,-0.88195 1.37493,-0.88195 1.15261,0 7.58779,-6.59609 7.58899,-7.77875 3e-4,-0.30074 0.13713,-0.69762 0.30405,-0.88194 0.16693,-0.18433 0.5838,-1.20827 0.9264,-2.27542 0.34259,-1.06715 0.76164,-2.30493 0.93122,-2.75063 0.80665,-2.12005 0.007,-9.93907 -1.14184,-11.16645 -0.17255,-0.18433 -0.31372,-0.61606 -0.31372,-0.95941 0,-2.03356 -4.99523,-8.16299 -7.8301,-9.60798 -0.64116,-0.32681 -1.64199,-0.89302 -2.22407,-1.25825 -0.58208,-0.36522 -1.48553,-0.67565 -2.00765,-0.68983 -0.52213,-0.0142 -1.04743,-0.18453 -1.16735,-0.37856 -0.11992,-0.19403 -0.89129,-0.35278 -1.71415,-0.35278 -0.82287,0 -1.68346,-0.18733 -1.91242,-0.41629 l -0.4163,-0.4163 -5.98204,0.0818 -5.98205,0.0818 -0.37499,-0.70068 c -0.21361,-0.39912 -0.37499,-2.82726 -0.37499,-5.64194 0,-2.913629 -0.14477,-5.030719 -0.35278,-5.159289 -0.19403,-0.11991 -0.35278,-0.53309 -0.35278,-0.91817 0,-0.38507 -0.56553,-2.24102 -1.25674,-4.12431 -1.52738,-4.16156 -1.37667,-3.82174 -2.45729,-5.54085 -0.48786,-0.77611 -0.9932,-1.64389 -1.12297,-1.9284 -0.83025,-1.82023 -7.0174,-8.52044 -8.9695,-9.71326 -0.31753,-0.19403 -1.11128,-0.76714 -1.76389,-1.27357 -1.32401,-1.02745 -5.81752,-3.48893 -6.36917,-3.48893 -0.35164,0 -2.3616,-0.81716 -3.54385,-1.44077 -0.33691,-0.17772 -1.16098,-0.32312 -1.83126,-0.32312 -0.67028,0 -1.3168,-0.15875 -1.43672,-0.35278 -0.11991,-0.19403 -1.0624,-0.35278 -2.0944,-0.35278 -1.03201,0 -2.44629,-0.23812 -3.14285,-0.52916 -1.62176,-0.67762 -4.70247,-0.6765 -6.00377,0.002 -0.5857,0.30546 -1.94869,0.52699 -3.24238,0.52699 -1.22755,0 -2.330032,0.15875 -2.449942,0.35278 -0.11992,0.19402 -0.76644,0.35277 -1.43672,0.35277 -0.67028,0 -1.49435,0.14246 -1.831262,0.31657 -0.33692,0.17411 -1.32695,0.58894 -2.20008,0.92185 -7.4258,2.83132 -14.37099,8.59117 -18.71215,15.51853 -1.35416,2.16088 -3.3399,6.52694 -3.68941,8.11192 -0.12811,0.58099 -0.39836,1.25568 -0.60055,1.4993 l -0.36761,0.443 h -5.05126 c -2.98697,0 -5.14037,0.14417 -5.269294,0.35278 -0.119917,0.19403 -0.766438,0.35278 -1.43672,0.35278 -0.670277,0 -1.494345,0.13189 -1.831262,0.29308 -0.336917,0.1612 -1.141377,0.55808 -1.787691,0.88195 -0.646313,0.32387 -1.329711,0.58885 -1.518662,0.58885 -0.639727,0 -4.70293,2.94524 -6.784394,4.917709 -1.935751,1.83439 -5.162104,5.93731 -5.162104,6.56459 0,0.15411 -0.209918,0.53083 -0.466483,0.83715 -0.256566,0.30632 -0.667341,1.27132 -0.912833,2.14444 -0.245492,0.87313 -0.65887,2.06375 -0.918619,2.64584 -0.78273,1.75406 -0.982089,3.32475 -0.985072,7.76111 -0.0029,4.37075 0.405828,7.3181 1.113029,8.0253 0.223349,0.22335 0.406089,0.84122 0.406089,1.37304 0,0.53183 0.15875,1.06507 0.352777,1.18499 0.194028,0.11992 0.352778,0.55229 0.352778,0.96084 0,0.40854 1.065672,2.32832 2.368159,4.26618 l 2.368159,3.52338 2.482536,2.05793 c 1.365394,1.13187 3.276285,2.44176 4.246424,2.91088 4.164972,2.01401 4.934447,2.33218 5.640151,2.33218 0.409818,0 0.930335,0.18521 1.156702,0.41158 0.226363,0.22636 1.164092,0.41157 2.08384,0.41157 0.91974,0 2.07597,0.21069 2.56939,0.4682 l 0.89714,0.46819 20.71328,0.002 20.713294,0.002 0.41403,-0.79375 z M 69.724536,128.86046 c -0.56286,-0.6782 -4.62701,-12.1734 -4.62701,-13.08721 0,-1.44977 1.88,-2.20849 2.78131,-1.12248 0.56286,0.67821 4.62702,12.1734 4.62702,13.08722 0,1.44976 -1.88,2.20849 -2.78132,1.12247 z m 74.112994,-0.29623 c -0.23283,-0.23283 -0.42333,-0.75418 -0.42333,-1.15855 0,-0.95485 3.72774,-12.09641 4.263,-12.74136 0.9038,-1.08902 2.79256,-0.35284 2.79256,1.08846 0,0.95485 -3.72774,12.09641 -4.263,12.74136 -0.50208,0.60496 -1.79607,0.64325 -2.36923,0.0701 z m -17.28611,-7.05556 c -0.23283,-0.23283 -0.42333,-0.75423 -0.42333,-1.15867 0,-1.28708 2.45371,-11.90868 2.86572,-12.40513 0.90072,-1.08529 2.77872,-0.32139 2.77872,1.13027 0,1.31835 -2.4361,11.86246 -2.8582,12.37105 -0.49666,0.59845 -1.79267,0.63272 -2.36291,0.0625 z m -39.881934,-0.39532 c -0.41269,-0.49727 -2.87474,-11.38526 -2.87474,-12.71307 0,-0.43508 0.1905,-0.98155 0.42333,-1.21438 0.56245,-0.56245 1.86385,-0.53885 2.34636,0.0425 0.4127,0.49726 2.87475,11.38526 2.87475,12.71306 0,0.43508 -0.1905,0.98156 -0.42333,1.21439 -0.56245,0.56244 -1.86385,0.53885 -2.34637,-0.0425 z m 19.773604,-3.48523 -0.42333,-0.42334 v -6.73805 -6.73806 l 0.42333,-0.42333 c 0.23283,-0.23283 0.75671,-0.42333 1.16417,-0.42333 0.40746,0 0.93133,0.1905 1.16416,0.42333 l 0.42334,0.42333 v 6.73806 6.73805 l -0.42334,0.42334 c -0.23283,0.23283 -0.7567,0.42333 -1.16416,0.42333 -0.40746,0 -0.93134,-0.1905 -1.16417,-0.42333 z"
     id="path3865"
     inkscape:connector-curvature="0" />
</svg>
